<svg width="16" height="16" viewBox="0 0 16 16" fill="none" xmlns="http://www.w3.org/2000/svg">
<g clip-path="url(#clip0_1_569)">
<path d="M8.47625 13.5389C8.33723 13.5538 8.19683 13.5619 8.05643 13.5633C5.73709 13.5809 3.82656 11.6917 3.79628 9.35233C3.78665 8.63427 3.9587 7.92569 4.29181 7.29959C4.31658 7.25226 4.37715 7.23603 4.42395 7.26308C4.468 7.28877 4.48314 7.34286 4.45974 7.38748C4.13902 7.98654 3.97522 8.66402 3.98486 9.35233C4.01376 11.5863 5.83895 13.3902 8.05506 13.374C8.97178 13.3672 9.8596 13.0427 10.563 12.4598C10.6029 12.426 10.6635 12.4301 10.6965 12.4706C10.7295 12.5112 10.7254 12.5707 10.6855 12.6032C10.0551 13.1265 9.28424 13.4524 8.47488 13.5403L8.47625 13.5389Z" fill="#1A1A49"/>
<path d="M11.3985 11.6715C11.3572 11.6431 11.3462 11.5877 11.3737 11.5444C11.8059 10.875 12.0289 10.0988 12.0193 9.29153C11.9904 7.05759 10.1652 5.25367 7.94906 5.26989C6.89331 5.27801 5.90776 5.6918 5.1631 6.4369C5.12593 6.47341 5.06537 6.47476 5.0282 6.43825C4.99104 6.40174 4.98966 6.34224 5.02683 6.30573C5.80728 5.52277 6.84101 5.08734 7.94768 5.07922C10.267 5.06164 12.1776 6.95076 12.2078 9.29018C12.2188 10.1326 11.9862 10.9453 11.5347 11.6445C11.5058 11.6891 11.4439 11.7013 11.3998 11.6702L11.3985 11.6715Z" fill="#1A1A49"/>
<path d="M3.40125 13.3159C3.40676 13.2902 3.4219 13.2658 3.43979 13.2469L5.86374 10.5072C5.92843 10.4342 5.96973 10.3463 5.98487 10.2516L7.59258 0.12046C7.60497 0.0447329 7.64213 -0.00665314 7.72059 0.000108187C7.79767 0.00822178 7.80455 0.0650169 7.80042 0.142096L7.30903 11.0468C7.30352 11.1549 7.24433 11.2523 7.15073 11.3091L3.54303 13.3889C3.50311 13.4132 3.4508 13.4227 3.41639 13.3821C3.3985 13.3618 3.39574 13.3389 3.39987 13.3159H3.40125Z" fill="#1A1A49"/>
<path d="M0.129392 15.9743L5.053 10.3408C5.12458 10.2596 5.17137 10.1595 5.18927 10.0541L6.16243 4.32993C6.17757 4.24339 6.05093 4.21228 6.02203 4.29477L4.1404 9.67408C4.12939 9.70789 4.11287 9.73899 4.0936 9.76874L0.0123928 15.8877C-0.0371599 15.9621 0.0688278 16.0405 0.128016 15.9729L0.129392 15.9743Z" fill="#1A1A49"/>
<path d="M12.5987 13.3159C12.5932 13.2902 12.5781 13.2658 12.5602 13.2469L10.1362 10.5072C10.0716 10.4342 10.0303 10.3463 10.0151 10.2516L8.40604 0.12046C8.39365 0.0447329 8.35648 -0.00665314 8.27803 0.000108187C8.20094 0.00822178 8.19406 0.0650169 8.19819 0.142096L8.68959 11.0468C8.69509 11.1549 8.75428 11.2523 8.84788 11.3091L12.4556 13.3889C12.4955 13.4132 12.5478 13.4227 12.5822 13.3821C12.6001 13.3618 12.6029 13.3389 12.5987 13.3159Z" fill="#1A1A49"/>
<path d="M15.8706 15.9743L10.947 10.3407C10.8754 10.2596 10.8286 10.1595 10.8107 10.0541L9.83756 4.32993C9.82241 4.24339 9.94905 4.21228 9.97795 4.29477L11.8596 9.67408C11.8706 9.70789 11.8871 9.73899 11.9064 9.76874L15.9862 15.8904C16.0358 15.9648 15.9298 16.0433 15.8706 15.9756V15.9743Z" fill="#1A1A49"/>
</g>
<defs>
<clipPath id="clip0_1_569">
<rect width="16" height="16" fill="white"/>
</clipPath>
</defs>
</svg>
