<svg width="294" height="145" viewBox="0 0 294 145" fill="none" xmlns="http://www.w3.org/2000/svg">
<g clip-path="url(#clip0_1_145)">
<path d="M32.25 18.23C30.49 17.04 28.42 16.19 26.08 15.7C23.81 15.23 21.38 15 18.85 15H0V65.53H12.8V46.73H19.32C21.91 46.73 24.34 46.48 26.57 45.99C28.87 45.48 30.89 44.6 32.58 43.38C34.3 42.14 35.67 40.45 36.65 38.37C37.62 36.32 38.11 33.77 38.11 30.8C38.11 27.83 37.58 25.2 36.54 23.16C35.49 21.11 34.05 19.46 32.26 18.24L32.25 18.23ZM23.12 34.42C22.54 34.78 21.88 35.04 21.14 35.19C20.35 35.35 19.51 35.44 18.65 35.44H12.8V26.29H17.04C17.97 26.29 18.98 26.35 20.02 26.45C20.97 26.55 21.83 26.78 22.58 27.13C23.29 27.46 23.85 27.91 24.3 28.51C24.71 29.05 24.91 29.82 24.91 30.79C24.91 31.76 24.75 32.48 24.42 33.05C24.09 33.64 23.66 34.08 23.13 34.41L23.12 34.42Z" fill="white"/>
<path d="M55.6 45.91H76.26V33.8H55.6V27.1H77.47V15H42.8V65.53H78.69V53.42H55.6V45.91Z" fill="white"/>
<path d="M120.66 40.16C122.55 37.59 123.51 34.43 123.51 30.79C123.51 27.8 122.98 25.26 121.94 23.22C120.89 21.17 119.45 19.51 117.66 18.3C115.91 17.11 113.85 16.25 111.54 15.74C109.29 15.25 106.89 15 104.4 15H84.81V65.53H97.61V46.25H100.94L110.9 65.53H126.2L113.85 44.77C116.74 43.94 119.03 42.39 120.66 40.16ZM97.6 26.29H103.32C104.2 26.29 105.12 26.36 106.06 26.48C106.91 26.6 107.68 26.82 108.32 27.15C108.91 27.45 109.39 27.87 109.77 28.44C110.13 28.97 110.31 29.74 110.31 30.72C110.31 31.77 110.11 32.57 109.71 33.08C109.27 33.65 108.74 34.05 108.07 34.32C107.33 34.61 106.49 34.79 105.56 34.85C104.54 34.92 103.56 34.95 102.64 34.95H97.6V26.28V26.29Z" fill="white"/>
<path d="M32.43 93.05C32.24 93.2 32.03 93.41 31.78 93.54C30.55 94.19 29.42 94.96 28.41 95.93C26.82 97.46 25.66 99.26 25 101.35C24.34 103.43 23.47 105.38 22.08 107.08C21.87 107.34 21.66 107.61 21.4 107.8C21.26 107.9 20.88 107.94 20.83 107.86C20.72 107.69 20.72 107.42 20.74 107.2C20.75 107.09 20.9 106.98 20.99 106.88C22.4 105.27 23.34 103.42 23.97 101.38C25.09 97.76 27.29 94.98 30.59 93.1C30.95 92.9 31.31 92.69 31.7 92.55C32.02 92.44 32.31 92.54 32.42 93.04L32.43 93.05Z" fill="white"/>
<mask id="mask0_1_145" style="mask-type:luminance" maskUnits="userSpaceOnUse" x="20" y="87" width="36" height="36">
<path d="M37.6 122.76C47.3202 122.76 55.2 114.88 55.2 105.16C55.2 95.4398 47.3202 87.56 37.6 87.56C27.8798 87.56 20 95.4398 20 105.16C20 114.88 27.8798 122.76 37.6 122.76Z" fill="white"/>
</mask>
<g mask="url(#mask0_1_145)">
<path d="M39.94 106.07C39.77 106.6 39.52 107.53 39.19 108.43C38.19 111.15 36.82 113.68 35.09 115.99C32.53 119.41 29.42 122.26 25.86 124.62C25.44 124.89 25.04 125.2 24.6 125.42C24.43 125.5 24.17 125.39 23.95 125.36C23.99 125.14 23.95 124.86 24.08 124.71C24.27 124.48 24.56 124.34 24.81 124.17C27.54 122.41 30.03 120.35 32.23 117.94C34.58 115.36 36.51 112.51 37.81 109.25C38.25 108.15 38.66 107.03 38.97 105.88C39.21 105.01 38.56 104.31 37.71 104.35C37.16 104.38 36.74 104.83 36.47 105.53C35.87 107.08 35.34 108.66 34.6 110.14C32.78 113.75 30.25 116.8 27.1 119.33C25.91 120.28 24.66 121.15 23.44 122.05C23.26 122.18 23.07 122.35 22.87 122.38C22.66 122.41 22.44 122.29 22.22 122.23C22.27 122.03 22.26 121.76 22.39 121.66C22.83 121.29 23.32 120.97 23.8 120.64C27.37 118.21 30.4 115.25 32.71 111.6C33.82 109.84 34.71 107.97 35.36 105.98C35.49 105.59 35.6 105.18 35.75 104.8C36.13 103.85 37.23 103.22 38.14 103.39C39.26 103.61 39.97 104.48 39.96 106.05L39.94 106.07Z" fill="white"/>
<path d="M47.85 105.61C47.81 103.39 47.07 101.46 45.82 99.7C45.74 99.59 45.59 99.48 45.59 99.37C45.58 99.15 45.56 98.85 45.69 98.71C45.92 98.46 46.19 98.58 46.39 98.83C47.23 99.88 47.82 101.06 48.24 102.34C49.09 104.9 48.77 107.4 47.94 109.91C46.3 114.89 43.79 119.38 40.41 123.39C38.41 125.77 36.14 127.88 33.67 129.77C33.03 130.26 32.38 130.72 31.73 131.19C31.49 131.36 31.22 131.47 31.01 131.16C30.81 130.86 30.99 130.62 31.22 130.44C31.52 130.2 31.84 129.98 32.15 129.75C35.67 127.11 38.83 124.12 41.43 120.55C43.68 117.46 45.46 114.13 46.7 110.51C46.94 109.8 47.2 109.1 47.37 108.37C47.58 107.46 47.7 106.53 47.86 105.61H47.85Z" fill="white"/>
<path d="M40.79 105.65C40.74 104.07 39.8 102.95 38.2 102.61C37.01 102.36 35.54 103.21 35.02 104.49C34.54 105.7 34.14 106.93 33.63 108.13C32.66 110.45 31.25 112.49 29.64 114.41C27.57 116.86 25.11 118.87 22.44 120.61C22.35 120.67 22.24 120.78 22.15 120.76C21.95 120.74 21.67 120.71 21.59 120.58C21.51 120.46 21.58 120.13 21.7 120.02C22.02 119.72 22.4 119.48 22.77 119.23C26.24 116.86 29.18 113.97 31.4 110.38C32.57 108.48 33.41 106.44 34.07 104.32C34.78 102.02 37.56 100.99 39.62 102.09C41.3 102.99 42.19 104.91 41.6 106.73C41.07 108.36 40.42 109.95 39.81 111.55C39.74 111.73 39.65 111.93 39.51 112.04C39.34 112.17 39.1 112.2 38.88 112.28C38.82 112.06 38.72 111.85 38.72 111.63C38.72 111.48 38.85 111.33 38.91 111.18C39.45 109.79 40.01 108.41 40.53 107.01C40.69 106.58 40.72 106.1 40.81 105.64L40.79 105.65Z" fill="white"/>
<path d="M45.25 104.88C45.13 105 44.97 105.28 44.77 105.32C44.39 105.4 44.27 105.07 44.23 104.74C44.01 103 43.16 101.61 41.81 100.53C38.89 98.2 34.81 98.82 32.65 101.64C32.11 102.35 31.73 103.13 31.47 104C30.06 108.76 27.2 112.52 23.39 115.6C22.83 116.05 22.25 116.48 21.67 116.9C21.52 117.01 21.33 117.11 21.15 117.12C20.78 117.14 20.59 116.71 20.82 116.4C20.95 116.23 21.14 116.09 21.32 115.97C23.65 114.33 25.69 112.4 27.38 110.1C28.82 108.14 29.94 106.01 30.58 103.66C31.69 99.57 35.87 97.41 39.55 98.38C42.69 99.21 44.47 101.29 45.17 104.39C45.19 104.5 45.21 104.61 45.25 104.86V104.88Z" fill="white"/>
<path d="M53.09 106.04C52.77 99.65 50.16 95.13 44.95 92.17C44.81 92.09 44.61 92.04 44.53 91.92C44.41 91.74 44.38 91.5 44.31 91.29C44.53 91.23 44.78 91.07 44.95 91.13C45.36 91.28 45.75 91.52 46.12 91.75C49.84 94.02 52.28 97.27 53.42 101.46C54.05 103.8 54.19 106.19 53.67 108.61C52.86 112.32 51.41 115.78 49.65 119.12C49.34 119.71 49 120.28 48.66 120.85C48.56 121.02 48.46 121.21 48.31 121.3C48.17 121.38 47.91 121.43 47.79 121.35C47.67 121.28 47.59 121 47.63 120.86C47.73 120.55 47.9 120.25 48.07 119.97C49.97 116.79 51.4 113.4 52.41 109.85C52.8 108.48 52.92 107.03 53.09 106.04Z" fill="white"/>
<path d="M55.78 105.64C55.72 107.86 55.25 109.98 54.56 112.06C53.8 114.34 52.91 116.57 51.82 118.73C50.13 122.08 48.09 125.2 45.61 128.01C44.29 129.5 42.86 130.89 41.47 132.32C41.22 132.58 40.91 133.02 40.52 132.58C40.16 132.18 40.57 131.87 40.84 131.61C43.27 129.3 45.55 126.85 47.48 124.1C49.22 121.63 50.76 119.03 51.92 116.24C52.66 114.45 53.39 112.65 53.92 110.79C54.38 109.18 54.6 107.49 54.8 105.82C54.9 105.01 54.7 104.17 54.61 103.35C54.57 103.02 54.57 102.69 54.95 102.62C55.4 102.53 55.51 102.9 55.55 103.24C55.64 104.03 55.71 104.83 55.79 105.63L55.78 105.64Z" fill="white"/>
<path d="M45.54 98.06C45.21 98.19 44.99 98.35 44.78 98.33C44.59 98.31 44.41 98.11 44.24 97.97C42.39 96.4 40.21 95.57 37.83 95.61C34.16 95.67 31.2 97.23 29.27 100.44C28.76 101.28 28.41 102.23 28.1 103.17C27.23 105.78 25.9 108.12 24.05 110.16C23.38 110.9 22.64 111.57 21.94 112.28C21.9 112.32 21.86 112.36 21.82 112.39C21.3 112.84 20.95 112.93 20.75 112.63C20.43 112.14 20.88 111.94 21.15 111.7C23.16 109.89 24.96 107.91 26.13 105.44C26.57 104.52 26.95 103.56 27.25 102.59C28.16 99.67 29.89 97.43 32.58 95.99C35.41 94.47 38.37 94.26 41.41 95.3C42.73 95.75 43.93 96.43 44.97 97.37C45.15 97.53 45.28 97.74 45.53 98.07L45.54 98.06Z" fill="white"/>
<path d="M43.43 105.7C43.57 106.81 43.1 107.85 42.74 108.89C41.08 113.66 38.5 117.88 34.99 121.53C32.7 123.92 30.18 126.02 27.39 127.81C26.75 128.22 26.35 128.27 26.24 127.93C26.05 127.37 26.56 127.23 26.88 127.01C29.71 125.14 32.32 123.01 34.62 120.52C37.93 116.94 40.44 112.87 41.93 108.2C42.12 107.6 42.32 106.99 42.43 106.37C42.68 105.02 42.37 103.79 41.51 102.71C41.44 102.62 41.36 102.54 41.3 102.45C41.12 102.17 41.01 101.83 41.36 101.66C41.53 101.58 41.91 101.71 42.06 101.87C43.02 102.94 43.54 104.19 43.43 105.7Z" fill="white"/>
<path d="M50.64 105.66C50.38 106.96 50.2 108.28 49.84 109.55C48.9 112.84 47.5 115.94 45.77 118.89C45.22 119.82 44.6 120.7 44 121.6C43.89 121.76 43.77 121.94 43.61 122.01C43.46 122.08 43.2 122.1 43.1 122.01C42.99 121.92 42.95 121.67 42.98 121.51C43.01 121.33 43.15 121.17 43.26 121.01C45.31 118.1 46.95 114.96 48.16 111.61C48.91 109.53 49.66 107.44 49.54 105.16C49.4 102.65 48.56 100.41 47.05 98.42C45.8 96.77 44.18 95.59 42.3 94.77C42.22 94.74 42.11 94.73 42.08 94.67C41.96 94.48 41.77 94.25 41.8 94.07C41.86 93.73 42.19 93.69 42.46 93.83C43.35 94.28 44.26 94.69 45.08 95.24C46.83 96.42 48.18 98 49.13 99.88C49.81 101.22 50.22 102.66 50.41 104.15C50.47 104.64 50.52 105.14 50.57 105.63C50.6 105.63 50.63 105.64 50.66 105.65L50.64 105.66Z" fill="white"/>
<path d="M52.28 105.57C52.28 107.63 51.68 109.56 51.08 111.5C50.98 111.81 50.81 112.08 50.43 111.97C50.09 111.87 50.09 111.57 50.15 111.28C50.21 111.01 50.29 110.74 50.38 110.48C50.93 109.01 51.23 107.49 51.3 105.94C51.37 104.24 51 102.59 50.43 100.99C49.73 99.05 48.64 97.37 47.16 95.95C44.89 93.77 42.17 92.55 39.03 92.22C37.32 92.04 35.67 92.28 34.03 92.67C33.92 92.7 33.79 92.77 33.71 92.73C33.5 92.64 33.32 92.51 33.13 92.39C33.24 92.22 33.31 91.94 33.46 91.89C34.06 91.68 34.67 91.5 35.29 91.39C36.94 91.1 38.6 91.11 40.24 91.39C42.18 91.71 43.96 92.44 45.6 93.51C49.25 95.87 51.34 99.25 52.05 103.52C52.16 104.2 52.2 104.89 52.27 105.58L52.28 105.57Z" fill="white"/>
<path d="M37.67 89.39C38.71 89.49 39.76 89.57 40.8 89.71C41.23 89.77 41.66 89.92 42.08 90.05C42.34 90.14 42.63 90.27 42.51 90.64C42.4 90.96 42.13 91 41.83 90.94C41.1 90.79 40.37 90.64 39.63 90.53C37.77 90.24 35.91 90.36 34.11 90.83C30.11 91.87 26.95 94.13 24.79 97.68C24.15 98.73 23.74 99.93 23.25 101.07C22.82 102.06 22.44 103.07 22.02 104.06C21.91 104.31 21.74 104.54 21.58 104.76C21.4 105.01 21.19 105.3 20.84 105.07C20.51 104.85 20.63 104.56 20.78 104.26C21.23 103.34 21.7 102.43 22.11 101.5C22.37 100.89 22.52 100.24 22.77 99.62C24.43 95.45 27.38 92.52 31.46 90.72C33.43 89.85 35.51 89.43 37.67 89.39Z" fill="white"/>
<path d="M37.78 97.29C35.68 97.37 33.88 98.1 32.3 99.44C32 99.7 31.66 100.16 31.27 99.68C30.92 99.26 31.39 98.98 31.66 98.74C33.39 97.21 35.45 96.36 37.72 96.4C42.6 96.48 46.27 99.82 46.93 104.54C47.11 105.84 46.96 107.08 46.56 108.3C46.12 109.64 45.64 110.97 45.17 112.29C45.06 112.6 44.9 112.9 44.7 113.16C44.62 113.27 44.33 113.32 44.2 113.26C44.07 113.2 43.97 112.96 43.97 112.8C43.97 112.62 44.1 112.44 44.16 112.26C44.75 110.51 45.49 108.79 45.89 106.99C46.77 103.06 43.95 98.69 40.04 97.71C39.29 97.52 38.53 97.43 37.77 97.29H37.78Z" fill="white"/>
<path d="M40.41 94.2C39.84 94.09 39.44 93.98 39.02 93.95C35.92 93.69 33.09 94.44 30.59 96.33C28.43 97.97 27.13 100.17 26.35 102.73C25.62 105.13 24.38 107.23 22.67 109.07C22.33 109.43 22.01 109.82 21.65 110.16C21.4 110.38 21.08 110.74 20.73 110.33C20.43 109.98 20.77 109.74 20.98 109.49C21.8 108.52 22.64 107.56 23.41 106.55C24.51 105.13 25.14 103.47 25.68 101.77C26.73 98.46 28.82 96.04 31.85 94.39C33.64 93.41 35.59 93.01 37.59 92.92C38.52 92.88 39.46 93.1 40.39 93.23C40.7 93.27 40.95 93.48 40.84 93.79C40.77 93.99 40.49 94.11 40.39 94.2H40.41Z" fill="white"/>
<path d="M37.46 87.68C42.31 87.75 46.3 89.22 49.69 92.23C52.17 94.43 53.91 97.11 54.88 100.28C54.99 100.64 55.32 101.15 54.73 101.34C54.15 101.52 54.13 100.9 53.98 100.55C53.54 99.56 53.21 98.53 52.71 97.58C51.13 94.58 48.83 92.29 45.84 90.69C43.61 89.49 41.25 88.82 38.71 88.7C37.48 88.64 36.29 88.73 35.08 88.87C34.75 88.91 34.42 88.93 34.09 88.9C33.95 88.89 33.73 88.73 33.73 88.64C33.73 88.48 33.82 88.25 33.95 88.17C34.18 88.03 34.46 87.94 34.73 87.91C35.75 87.81 36.77 87.73 37.46 87.68Z" fill="white"/>
<path d="M44.63 108.66C44.53 108.99 44.48 109.23 44.39 109.46C42.96 113.49 40.93 117.17 38.23 120.48C35.91 123.33 33.24 125.8 30.26 127.94C29.77 128.29 29.27 128.65 28.76 128.99C28.58 129.11 28.38 129.25 28.18 129.29C28.02 129.32 27.76 129.24 27.69 129.12C27.62 129 27.66 128.74 27.76 128.6C27.88 128.43 28.09 128.31 28.27 128.19C30.89 126.42 33.32 124.42 35.51 122.14C39.1 118.39 41.77 114.07 43.49 109.16C43.56 108.95 43.6 108.71 43.73 108.55C43.85 108.4 44.08 108.24 44.24 108.26C44.39 108.28 44.51 108.53 44.63 108.66Z" fill="white"/>
<path d="M35.53 132.67C35.38 132.59 35.19 132.55 35.16 132.46C35.11 132.29 35.08 132.05 35.17 131.93C35.37 131.67 35.64 131.47 35.89 131.25C37.8 129.65 39.65 128 41.33 126.15C44.43 122.74 46.9 118.93 48.8 114.74C48.88 114.56 48.94 114.36 49.08 114.24C49.2 114.13 49.45 114.05 49.58 114.1C49.71 114.15 49.83 114.39 49.84 114.55C49.85 114.73 49.74 114.92 49.66 115.09C47.39 120.28 44.18 124.81 40.11 128.74C38.9 129.91 37.6 130.99 36.34 132.1C36.1 132.31 35.8 132.47 35.52 132.66L35.53 132.67Z" fill="white"/>
<path d="M44.14 114.49C43.99 114.83 43.88 115.08 43.76 115.33C42.43 117.9 40.77 120.24 38.9 122.45C36.37 125.42 33.43 127.93 30.22 130.13C30.2 130.15 30.18 130.16 30.15 130.18C29.84 130.37 29.49 130.66 29.22 130.23C28.95 129.81 29.38 129.6 29.65 129.38C31.25 128.11 32.89 126.87 34.46 125.56C36.6 123.78 38.45 121.71 40.03 119.43C41.13 117.84 42.07 116.14 43.11 114.51C43.24 114.31 43.5 114.15 43.73 114.09C43.82 114.06 44 114.35 44.14 114.49Z" fill="white"/>
<path d="M37.89 86.03C39.44 85.93 41.08 86.12 42.69 86.56C42.8 86.59 42.94 86.58 43.01 86.65C43.19 86.82 43.48 87.03 43.48 87.22C43.46 87.62 43.09 87.62 42.78 87.57C41.72 87.4 40.67 87.16 39.6 87.03C36.34 86.64 33.19 87.12 30.23 88.52C28.84 89.18 27.56 90.07 26.23 90.85C26.05 90.96 25.83 91.09 25.64 91.08C25.26 91.06 25.16 90.57 25.51 90.26C26.01 89.82 26.54 89.42 27.1 89.07C30.37 87.06 33.88 85.84 37.89 86.03Z" fill="white"/>
<path d="M25.39 126.95C25.23 126.81 25.02 126.71 24.99 126.57C24.96 126.42 25.04 126.17 25.16 126.07C25.5 125.79 25.88 125.55 26.25 125.31C28.95 123.55 31.4 121.48 33.54 119.07C34.76 117.69 35.81 116.15 36.94 114.69C37.07 114.52 37.17 114.29 37.34 114.17C37.47 114.08 37.73 114.04 37.85 114.12C37.97 114.2 38.06 114.45 38.03 114.61C38 114.82 37.85 115.01 37.74 115.2C36 118.03 33.79 120.47 31.29 122.62C29.66 124.02 27.87 125.24 26.15 126.53C25.94 126.69 25.68 126.79 25.38 126.95H25.39Z" fill="white"/>
<path d="M40.72 100.98C40.38 101.15 40.19 101.32 39.99 101.33C39.75 101.33 39.51 101.21 39.28 101.13C36.76 100.3 34.1 101.59 33.29 104.13C32.56 106.38 31.65 108.54 30.37 110.52C30.18 110.82 29.99 111.14 29.74 111.39C29.62 111.52 29.37 111.52 29.17 111.57C29.11 111.35 28.99 111.13 29 110.92C29.01 110.75 29.17 110.58 29.28 110.42C30.67 108.4 31.64 106.19 32.36 103.84C33.31 100.75 36.92 98.99 40 100.36C40.22 100.46 40.39 100.69 40.72 100.97V100.98Z" fill="white"/>
<path d="M33.59 88.84C33.22 89.09 33.01 89.31 32.76 89.39C31.07 89.95 29.47 90.7 28.02 91.74C25.24 93.72 23.19 96.26 21.97 99.47C21.87 99.73 21.78 100 21.62 100.22C21.53 100.34 21.27 100.45 21.15 100.4C21.01 100.35 20.86 100.13 20.85 99.97C20.83 99.76 20.93 99.54 21.01 99.33C22.5 95.41 25.03 92.35 28.64 90.22C29.75 89.56 30.98 89.1 32.16 88.57C32.4 88.46 32.7 88.4 32.96 88.42C33.13 88.43 33.29 88.63 33.6 88.84H33.59Z" fill="white"/>
<path d="M48.64 129.73C48.21 129.7 47.99 129.34 48.14 129.04C48.28 128.77 48.48 128.53 48.67 128.3C51.26 125.13 53.35 121.65 55 117.9C55.1 117.67 55.2 117.42 55.37 117.26C55.5 117.13 55.79 117.03 55.93 117.1C56.07 117.17 56.19 117.47 56.15 117.64C56.08 117.99 55.91 118.32 55.76 118.64C54.35 121.66 52.7 124.54 50.72 127.22C50.21 127.91 49.69 128.59 49.16 129.26C49 129.46 48.77 129.62 48.64 129.73Z" fill="white"/>
<path d="M38.07 132.88C37.89 132.78 37.7 132.73 37.64 132.61C37.58 132.49 37.59 132.26 37.67 132.16C37.87 131.9 38.12 131.67 38.37 131.45C41.43 128.79 44.17 125.84 46.48 122.49C46.57 122.35 46.64 122.17 46.77 122.09C46.96 121.98 47.24 121.83 47.4 121.89C47.73 122.02 47.65 122.33 47.52 122.6C47.45 122.75 47.36 122.9 47.26 123.03C45.9 124.74 44.61 126.51 43.15 128.13C41.76 129.66 40.19 131.03 38.68 132.46C38.51 132.63 38.28 132.74 38.06 132.89L38.07 132.88Z" fill="white"/>
<path d="M55.68 97.51C55.58 97.64 55.48 97.89 55.36 97.9C55.19 97.92 54.91 97.83 54.81 97.69C54.53 97.28 54.33 96.82 54.08 96.39C52.25 93.22 49.71 90.79 46.5 89.04C46.31 88.93 46.09 88.84 45.95 88.68C45.84 88.56 45.75 88.27 45.81 88.18C45.91 88.04 46.17 87.91 46.34 87.93C46.57 87.96 46.79 88.13 47 88.25C50.58 90.14 53.26 92.92 55.2 96.46C55.37 96.77 55.5 97.11 55.67 97.5L55.68 97.51Z" fill="white"/>
<path d="M44.05 132.11C43.92 131.77 43.74 131.52 43.78 131.33C43.84 131.09 44.07 130.87 44.26 130.68C46.35 128.57 48.16 126.23 49.81 123.78C50.04 123.44 50.25 123.08 50.48 122.73C50.66 122.46 50.86 122.22 51.22 122.44C51.57 122.66 51.47 122.95 51.28 123.23C50.41 124.51 49.6 125.84 48.65 127.05C47.43 128.59 46.1 130.03 44.8 131.5C44.63 131.7 44.39 131.84 44.05 132.12V132.11Z" fill="white"/>
<path d="M56.42 111.95C56.2 112.62 56.04 113.22 55.82 113.78C55.05 115.68 54.25 117.56 53.45 119.45C53.33 119.73 53.19 120.02 52.98 120.23C52.84 120.37 52.56 120.36 52.35 120.41C52.3 120.19 52.16 119.93 52.23 119.76C52.47 119.17 52.81 118.63 53.05 118.04C53.83 116.15 54.57 114.24 55.33 112.34C55.4 112.16 55.44 111.95 55.56 111.81C55.67 111.68 55.89 111.53 56.02 111.57C56.19 111.62 56.31 111.83 56.43 111.96L56.42 111.95Z" fill="white"/>
<path d="M29.75 119.22C29.63 118.89 29.46 118.66 29.49 118.46C29.51 118.27 29.72 118.1 29.88 117.94C31.52 116.25 33 114.44 34.24 112.44C34.37 112.23 34.5 112 34.69 111.85C34.81 111.76 35.08 111.72 35.2 111.8C35.32 111.88 35.39 112.12 35.39 112.29C35.39 112.44 35.26 112.59 35.18 112.73C33.91 114.92 32.28 116.82 30.53 118.63C30.35 118.82 30.11 118.95 29.75 119.22Z" fill="white"/>
<path d="M38.23 105.59C38.18 105.84 38.16 106.01 38.11 106.16C37.57 107.55 37.03 108.93 36.49 110.32C36.45 110.42 36.41 110.57 36.33 110.6C36.12 110.68 35.88 110.78 35.68 110.72C35.58 110.69 35.48 110.34 35.53 110.17C35.64 109.78 35.86 109.41 36 109.03C36.41 107.98 36.8 106.92 37.2 105.86C37.26 105.71 37.29 105.51 37.4 105.42C37.53 105.31 37.75 105.21 37.89 105.25C38.03 105.29 38.13 105.5 38.21 105.59H38.23Z" fill="white"/>
<path d="M21.67 114.33C21.5 114.21 21.32 114.14 21.27 114.02C21.22 113.9 21.24 113.68 21.32 113.57C21.47 113.38 21.67 113.22 21.87 113.07C24.31 111.16 26.41 108.92 27.87 106.17C28.48 105.03 28.91 103.8 29.4 102.6C29.64 102.01 29.83 101.4 30.09 100.82C30.2 100.56 30.46 100.33 30.75 100.54C30.89 100.65 30.99 101 30.93 101.17C29.95 104.09 28.9 106.97 26.92 109.4C25.55 111.08 24.05 112.63 22.31 113.92C22.12 114.06 21.9 114.18 21.67 114.32V114.33Z" fill="white"/>
<path d="M29.56 111.53C29.34 111.88 29.23 112.11 29.07 112.28C27.82 113.53 26.6 114.81 25.29 116C24.52 116.71 23.63 117.28 22.79 117.91C22.72 117.96 22.66 118.01 22.58 118.05C22.28 118.23 21.96 118.57 21.66 118.11C21.39 117.68 21.78 117.47 22.06 117.25C22.52 116.9 22.99 116.56 23.46 116.22C25.23 114.93 26.82 113.44 28.25 111.77C28.41 111.58 28.59 111.35 28.81 111.3C29 111.25 29.24 111.42 29.56 111.53Z" fill="white"/>
<path d="M24.04 123.29C23.61 123.3 23.38 123 23.55 122.69C23.65 122.51 23.84 122.37 24.01 122.24C25.36 121.24 26.72 120.25 28.08 119.27C28.38 119.06 28.73 118.65 29.07 119.08C29.39 119.48 29.02 119.78 28.69 120.02C27.31 121.03 25.94 122.04 24.55 123.04C24.38 123.17 24.16 123.23 24.03 123.3L24.04 123.29Z" fill="white"/>
</g>
<path d="M128.82 65.53H141.61V46.72H161.47V34.62H141.61V27.1H163.08V15H128.82V65.53Z" fill="white"/>
<path d="M181.52 45.91H202.18V33.8H181.52V27.1H203.4V15H168.73V65.53H204.61V53.42H181.52V45.91Z" fill="white"/>
<path d="M254.84 26.69H267.65V65.53H280.44V26.69H292.44V15H254.84" fill="white"/>
<path d="M252.45 21.85L252.01 21.29C250.91 19.89 249.65 18.69 248.26 17.72C246.89 16.76 245.44 15.99 243.94 15.41C242.46 14.84 240.94 14.42 239.41 14.16C237.89 13.9 236.41 13.77 235.01 13.77C231.16 13.77 227.56 14.39 224.31 15.61C221.04 16.84 218.16 18.63 215.77 20.93C213.38 23.24 211.49 26.06 210.15 29.33C208.82 32.59 208.15 36.26 208.15 40.26C208.15 44.26 208.82 47.93 210.15 51.18C211.48 54.45 213.37 57.28 215.77 59.58C218.16 61.88 221.03 63.67 224.31 64.9C227.57 66.12 231.17 66.74 235.01 66.74C238.43 66.74 241.8 66.02 245.03 64.6C248.31 63.16 251.05 60.9 253.18 57.88L253.82 56.97L243.21 48.95L242.54 49.97C241.57 51.44 240.33 52.6 238.84 53.41C237.36 54.22 235.62 54.63 233.67 54.63C231.96 54.63 230.35 54.28 228.88 53.58C227.39 52.88 226.08 51.89 224.98 50.63C223.87 49.36 222.98 47.83 222.33 46.08C221.69 44.33 221.36 42.37 221.36 40.24C221.36 38.11 221.69 36.2 222.33 34.43C222.97 32.67 223.87 31.13 225 29.86C226.12 28.6 227.46 27.61 229 26.9C230.52 26.2 232.21 25.85 234.01 25.85C235.81 25.85 237.41 26.16 238.75 26.77C240.08 27.37 241.22 28.25 242.14 29.38L242.87 30.28L252.69 22.16" fill="white"/>
<path d="M256.51 11.48H291.58L274.05 0L256.51 11.48Z" fill="white"/>
<path d="M127.18 108.08C129.37 104.94 130.48 101.11 130.48 96.67C130.48 93.03 129.87 89.93 128.66 87.45C127.44 84.95 125.77 82.93 123.69 81.44C121.64 79.98 119.24 78.92 116.55 78.3C113.93 77.7 111.12 77.39 108.22 77.39H85.4V139.13H100.34V115.54H104.16L115.75 139.13H133.58L119.22 113.73C122.61 112.71 125.29 110.81 127.2 108.08H127.18ZM114.42 93.74C114.85 94.4 115.06 95.36 115.06 96.59C115.06 97.9 114.82 98.89 114.35 99.53C113.84 100.22 113.22 100.72 112.45 101.04C111.6 101.4 110.63 101.61 109.56 101.69C108.37 101.77 107.23 101.81 106.17 101.81H100.33V91.11H106.96C107.99 91.11 109.05 91.19 110.13 91.35C111.11 91.49 111.99 91.77 112.74 92.16C113.42 92.53 113.98 93.04 114.43 93.74H114.42Z" fill="white"/>
<path d="M179.76 84.39C176.65 81.92 172.96 80.11 168.81 79.01C164.72 77.93 160.35 77.38 155.82 77.38H136.13V139.12H157.46C161.72 139.12 165.84 138.45 169.72 137.13C173.63 135.8 177.12 133.82 180.12 131.25C183.13 128.66 185.55 125.42 187.32 121.62C189.09 117.81 189.99 113.37 189.99 108.42C189.99 102.86 189.07 98.04 187.24 94.09C185.41 90.13 182.89 86.87 179.76 84.38V84.39ZM174.58 107.75C174.58 110.88 174.11 113.54 173.17 115.66C172.25 117.75 170.97 119.46 169.38 120.73C167.77 122.02 165.82 122.96 163.59 123.52C161.29 124.1 158.75 124.4 156.05 124.4H151.07V92.11H156.91C159.32 92.11 161.65 92.44 163.84 93.09C165.98 93.73 167.87 94.7 169.44 95.97C170.99 97.22 172.25 98.84 173.18 100.79C174.11 102.74 174.57 105.08 174.57 107.75H174.58Z" fill="white"/>
<path d="M210.98 115.12H235.02V100.4H210.98V92.12H236.43V77.39H196.04V139.13H237.84V124.4H210.98V115.12Z" fill="white"/>
<path d="M278.71 113.73C282.1 112.71 284.78 110.81 286.69 108.08C288.88 104.94 289.99 101.11 289.99 96.67C289.99 93.03 289.38 89.93 288.17 87.45C286.95 84.95 285.28 82.93 283.2 81.44C281.15 79.98 278.75 78.92 276.06 78.3C273.44 77.7 270.63 77.39 267.73 77.39H244.91V139.13H259.85V115.54H263.67L275.26 139.13H293.09L278.73 113.73H278.71ZM273.93 93.74C274.36 94.4 274.57 95.36 274.57 96.59C274.57 97.9 274.33 98.89 273.86 99.53C273.35 100.22 272.73 100.72 271.96 101.04C271.11 101.4 270.14 101.61 269.07 101.69C267.88 101.77 266.74 101.81 265.68 101.81H259.84V91.11H266.47C267.5 91.11 268.56 91.19 269.64 91.35C270.62 91.49 271.5 91.77 272.25 92.16C272.93 92.53 273.49 93.04 273.94 93.74H273.93Z" fill="white"/>
<path d="M37.96 132.99C23.31 132.99 11.39 121.07 11.39 106.42C11.39 103.4 11.89 100.45 12.88 97.63C13.05 97.14 13.58 96.89 14.07 97.06C14.56 97.23 14.81 97.76 14.64 98.25C13.72 100.87 13.26 103.62 13.26 106.43C13.26 120.06 24.34 131.14 37.97 131.14C41.95 131.14 45.9 130.17 49.41 128.34C49.87 128.1 50.43 128.28 50.67 128.73C50.91 129.19 50.73 129.75 50.28 129.99C46.51 131.96 42.26 133 37.98 133L37.96 132.99Z" fill="white"/>
<path d="M60.94 118.74C60.8 118.74 60.66 118.71 60.53 118.64C60.07 118.41 59.88 117.85 60.11 117.39C61.81 113.96 62.67 110.27 62.67 106.41C62.67 92.78 51.59 81.7 37.96 81.7C34.54 81.7 31.22 82.39 28.11 83.74C27.64 83.95 27.09 83.73 26.89 83.26C26.68 82.79 26.9 82.24 27.37 82.04C30.72 80.58 34.28 79.85 37.96 79.85C52.61 79.85 64.53 91.77 64.53 106.42C64.53 110.57 63.6 114.54 61.77 118.22C61.61 118.55 61.28 118.74 60.94 118.74Z" fill="white"/>
<path d="M16.05 99.19C12.63 99.19 9.84998 96.41 9.84998 92.99C9.84998 89.57 12.63 86.79 16.05 86.79C19.47 86.79 22.25 89.57 22.25 92.99C22.25 96.41 19.47 99.19 16.05 99.19ZM16.05 88.65C13.66 88.65 11.71 90.6 11.71 92.99C11.71 95.38 13.66 97.33 16.05 97.33C18.44 97.33 20.39 95.38 20.39 92.99C20.39 90.6 18.44 88.65 16.05 88.65Z" fill="white"/>
<path d="M10.34 138.76C6.25999 138.76 2.92999 135.44 2.92999 131.35C2.92999 127.26 6.24999 123.94 10.34 123.94C14.43 123.94 17.75 127.26 17.75 131.35C17.75 135.44 14.43 138.76 10.34 138.76ZM10.34 126.43C7.61999 126.43 5.40999 128.64 5.40999 131.36C5.40999 134.08 7.61999 136.29 10.34 136.29C13.06 136.29 15.27 134.08 15.27 131.36C15.27 128.64 13.06 126.43 10.34 126.43Z" fill="white"/>
<path d="M70.9 98.68C66.82 98.68 63.49 95.36 63.49 91.27C63.49 87.18 66.81 83.86 70.9 83.86C74.99 83.86 78.31 87.18 78.31 91.27C78.31 95.36 74.99 98.68 70.9 98.68ZM70.9 86.35C68.18 86.35 65.97 88.56 65.97 91.28C65.97 94 68.18 96.21 70.9 96.21C73.62 96.21 75.83 94 75.83 91.28C75.83 88.56 73.62 86.35 70.9 86.35Z" fill="white"/>
<path d="M57.65 128.56C54.23 128.56 51.45 125.78 51.45 122.36C51.45 118.94 54.23 116.16 57.65 116.16C61.07 116.16 63.85 118.94 63.85 122.36C63.85 125.78 61.07 128.56 57.65 128.56ZM57.65 118.02C55.26 118.02 53.31 119.97 53.31 122.36C53.31 124.75 55.26 126.7 57.65 126.7C60.04 126.7 61.99 124.75 61.99 122.36C61.99 119.97 60.04 118.02 57.65 118.02Z" fill="white"/>
<path d="M37.96 144.97C35.53 144.97 33.09 144.74 30.72 144.28C29.71 144.08 29.05 143.11 29.25 142.1C29.44 141.09 30.42 140.43 31.43 140.63C33.57 141.04 35.77 141.25 37.96 141.25C56.84 141.25 72.2 125.89 72.2 107.01C72.2 104.3 71.88 101.61 71.26 99C71.02 98 71.64 96.99 72.64 96.76C73.64 96.52 74.65 97.14 74.88 98.14C75.57 101.03 75.92 104.02 75.92 107.02C75.92 127.95 58.89 144.98 37.96 144.98V144.97Z" fill="white"/>
<path d="M6.82 127.13C6.18 127.13 5.56 126.8 5.21 126.21C1.8 120.41 0 113.77 0 107.01C0 86.08 17.03 69.05 37.96 69.05C47.34 69.05 56.35 72.5 63.32 78.77C64.08 79.46 64.15 80.63 63.46 81.4C62.77 82.16 61.6 82.23 60.83 81.54C54.54 75.89 46.42 72.78 37.95 72.78C19.07 72.78 3.71 88.14 3.71 107.02C3.71 113.12 5.33 119.11 8.41 124.34C8.93 125.23 8.63 126.37 7.75 126.89C7.45 127.06 7.13 127.15 6.81 127.15L6.82 127.13Z" fill="white"/>
</g>
<defs>
<clipPath id="clip0_1_145">
<rect width="293.08" height="144.97" fill="white"/>
</clipPath>
</defs>
</svg>
